<svg width="32" height="32" viewBox="0 0 32 32" fill="none" xmlns="http://www.w3.org/2000/svg">
<circle cx="16" cy="16" r="16" fill="#ef6031"/>
<path d="M24.7313 9.33125C24.5938 9.19375 24.4562 9.125 24.25 9.125H21.5V7.0625C21.5 6.85625 21.4313 6.71875 21.2938 6.58125C21.1563 6.44375 21.0188 6.375 20.8125 6.375H11.1875C10.9813 6.375 10.8438 6.44375 10.7063 6.58125C10.5688 6.71875 10.5 6.85625 10.5 7.0625V9.125H7.75C7.54375 9.125 7.40625 9.19375 7.26875 9.33125C7.13125 9.46875 7.0625 9.675 7.0625 9.8125C7.13125 12.15 7.6125 13.8 8.4375 14.625C9.17656 15.3641 10.1038 15.8206 11.18 15.9568C11.4144 16.396 11.7124 16.8001 12.0813 17.1688C12.9591 18.0466 14.0363 18.5753 15.3125 18.7135V21.5H13.25C13.0437 21.5 12.9062 21.5687 12.7688 21.7062C12.6312 21.8437 12.5625 21.9812 12.5625 22.1875C12.5625 22.3937 12.6312 22.5312 12.7688 22.6688C12.9062 22.8062 13.0437 22.875 13.25 22.875H18.75C18.9563 22.875 19.0938 22.8062 19.2313 22.6688C19.3688 22.5312 19.4375 22.3937 19.4375 22.1875C19.4375 21.9812 19.3688 21.8437 19.2313 21.7062C19.0938 21.5687 18.9563 21.5 18.75 21.5H16.6875V18.6911C17.9637 18.5255 19.0409 18.0464 19.9188 17.1688C20.2883 16.7992 20.5957 16.394 20.8385 15.9538C21.8897 15.8139 22.7725 15.3587 23.5625 14.625C24.3875 13.8 24.8687 12.2188 24.9375 9.8125C24.9375 9.675 24.8687 9.46875 24.7313 9.33125ZM10.5 14.4187C10.0875 14.2812 9.74375 14.0063 9.4 13.6625C8.91875 13.1813 8.64375 12.15 8.50625 10.5H10.5V14.4187ZM18.8875 16.1375C18.0625 16.8938 17.1687 17.375 16 17.375C14.8313 17.375 13.8688 16.9625 13.1125 16.1375C12.3563 15.3125 11.875 14.4187 11.875 13.25V7.75H20.125V13.25C20.125 14.4187 19.7125 15.3813 18.8875 16.1375ZM22.6 13.6625C22.2563 14.0063 21.9125 14.2125 21.5 14.4187V10.5H23.4937C23.3562 12.15 23.0813 13.1813 22.6 13.6625ZM21.5 24.25H10.5C10.2938 24.25 10.1563 24.3188 10.0188 24.4562C9.88125 24.5938 9.8125 24.7313 9.8125 24.9375C9.8125 25.1437 9.88125 25.2812 10.0188 25.4188C10.1563 25.5562 10.2938 25.625 10.5 25.625H21.5C21.7063 25.625 21.8438 25.5562 21.9813 25.4188C22.1188 25.2812 22.1875 25.1437 22.1875 24.9375C22.1875 24.7313 22.1188 24.5938 21.9813 24.4562C21.8438 24.3188 21.7063 24.25 21.5 24.25Z" fill="black"/>
</svg>
