<svg width="95" height="101" viewBox="0 0 95 101" fill="none" xmlns="http://www.w3.org/2000/svg">
<path d="M62.6005 0.924487C62.9919 1.21804 63.4322 1.43821 63.7503 1.80516C64.4352 2.56351 64.6309 3.46864 64.2151 4.4227C63.7747 5.42569 62.9674 5.98834 61.8421 5.98834C59.2735 5.98834 56.7049 5.98834 54.1363 5.98834C53.7693 5.98834 53.4269 5.98834 53.011 5.98834C53.011 9.11961 53.011 12.202 53.011 15.3577C62.7962 16.0671 71.4072 19.5898 78.6727 25.9502C80.483 24.1399 82.2688 22.3786 84.1524 20.5194C83.4675 19.8589 82.6357 19.0761 81.8284 18.2688C80.6298 17.0701 80.5564 15.5045 81.5838 14.4526C82.6357 13.4006 84.2014 13.474 85.4 14.6727C88.2378 17.486 91.0755 20.3237 93.8887 23.1614C95.1119 24.409 95.2097 26.0236 94.1089 27.051C93.057 28.054 91.4913 27.9562 90.2927 26.733C89.4854 25.9257 88.727 25.094 87.9931 24.3356C86.1339 26.2193 84.3726 27.9806 82.5868 29.7664C83.4675 30.8917 84.446 32.0659 85.3022 33.3136C91.3935 42.0469 93.9376 51.7098 92.9347 62.3023C91.2223 80.7229 77.5229 96.2325 59.3714 99.902C44.5468 102.911 31.5569 99.0947 20.4751 88.7468C19.1786 87.5481 19.0318 85.958 20.0837 84.8817C21.1356 83.7808 22.6768 83.8542 23.9734 85.0774C29.2818 90.1901 35.5444 93.566 42.7854 95.0338C50.6381 96.6239 58.2705 95.8166 65.6094 92.5875C73.5355 89.0893 79.5778 83.4873 83.6632 75.8548C86.2807 70.9866 87.724 65.7516 88.0176 60.1984C88.3845 53.52 87.1125 47.1841 84.128 41.2151C80.9967 34.9281 76.4466 29.8887 70.4776 26.1459C63.4322 21.7181 55.7508 19.8589 47.4823 20.4705C40.6816 20.9597 34.4435 23.1614 28.8904 27.0999C27.1535 28.3476 25.539 29.7909 23.9 31.1853C22.6279 32.2861 21.0622 32.3595 20.0837 31.2831C19.0807 30.2068 19.252 28.6411 20.4507 27.4669C25.9549 22.1095 32.4376 18.44 39.8743 16.5808C42.4185 15.9448 45.0605 15.6512 47.7514 15.1864C47.7514 12.2509 47.7514 9.16853 47.7514 5.96387C46.7974 5.96387 45.8433 5.96387 44.8648 5.96387C43.0056 5.96387 41.1464 5.96387 39.2872 5.96387C37.795 5.96387 36.7186 5.25445 36.425 4.10468C36.107 2.85707 36.5963 1.87855 37.9662 1.07127C38.0396 1.02234 38.113 0.948951 38.1864 0.900024C46.3081 0.924487 54.4543 0.924487 62.6005 0.924487Z" fill="#ef6031"/>
<path d="M50.3935 49.1656C51.5188 49.4591 52.6685 49.6548 53.7449 50.0462C54.3565 50.2664 54.6989 50.2419 55.1637 49.7771C59.2735 45.6184 63.4322 41.4842 67.591 37.3499C68.7163 36.2246 69.8416 35.9555 70.9179 36.5182C72.4836 37.3499 72.8016 39.2336 71.554 40.5546C70.2085 41.9734 68.7897 43.3189 67.4197 44.7133C64.5331 47.5999 61.6709 50.4866 58.7843 53.3243C58.3195 53.7891 58.2705 54.1316 58.5152 54.7431C59.8606 58.168 59.3469 61.3482 56.9006 64.088C54.6256 66.6077 51.69 67.5128 48.3875 66.73C44.8403 65.8983 42.6142 63.5498 41.7825 60.0272C40.4859 54.5474 44.718 49.3613 50.3935 49.1656ZM50.369 54.4007C48.2896 54.4007 46.5772 56.1131 46.6017 58.1924C46.6261 60.2229 48.3141 61.8863 50.369 61.8863C52.4483 61.8863 54.1608 60.1739 54.1363 58.0946C54.0874 56.0397 52.4239 54.4007 50.369 54.4007Z" fill="#ef6031"/>
<path d="M21.1356 55.5994C24.8539 55.5994 28.5479 55.5994 32.2662 55.5994C34.1499 55.5994 35.2997 56.5779 35.2752 58.1435C35.2507 59.6602 34.101 60.6632 32.3152 60.6632C24.805 60.6632 17.2949 60.6632 9.78471 60.6632C8.36585 60.6632 7.31394 59.8804 6.99592 58.6817C6.72683 57.6053 7.28948 56.3822 8.41478 55.8685C8.85512 55.6728 9.41777 55.6238 9.93149 55.5994C13.6499 55.5994 17.3927 55.5994 21.1356 55.5994Z" fill="#ef6031"/>
<path d="M15.1422 44.3709C11.4238 44.3709 7.72988 44.3709 4.0115 44.3709C2.98405 44.3709 2.07892 44.1507 1.46734 43.2456C0.439895 41.7534 1.24718 39.7229 3.03298 39.3804C3.44885 39.3071 3.86472 39.2826 4.30506 39.2826C11.5461 39.2826 18.8116 39.2826 26.0527 39.2826C28.1565 39.2826 29.4041 40.2611 29.3552 41.8757C29.3308 43.4658 28.1321 44.3709 26.0527 44.3709C22.4322 44.3709 18.7872 44.3709 15.1422 44.3709Z" fill="#ef6031"/>
<path d="M15.2155 76.9557C11.3504 76.9557 7.48522 76.9557 3.5956 76.9557C2.4703 76.9557 1.66302 76.393 1.22269 75.4145C0.806813 74.5094 0.880203 73.5309 1.63856 72.8948C2.20121 72.4056 3.03295 71.9408 3.74238 71.9408C11.3748 71.8674 19.0318 71.8918 26.6643 71.9163C28.2543 71.9163 29.4041 73.115 29.3552 74.5339C29.3063 75.9527 28.181 76.9802 26.6153 76.9802C22.8236 76.9557 19.0318 76.9557 15.2155 76.9557Z" fill="#ef6031"/>
<path d="M71.0403 81.6035C70.4531 81.2855 69.7926 81.0654 69.3278 80.625C68.1536 79.5487 67.0283 78.3989 65.9275 77.2491C64.8756 76.1483 64.8756 74.5582 65.8786 73.5797C66.8571 72.6256 68.3983 72.6256 69.4746 73.6531C70.6733 74.8028 71.8475 75.9771 72.9973 77.1757C73.8046 78.0075 73.9024 79.0349 73.4376 80.0624C72.9728 81.0164 72.1656 81.4323 71.0403 81.6035Z" fill="#ef6031"/>
<path d="M77.2783 60.6877C76.52 60.6877 75.7861 60.7121 75.0278 60.6877C73.4377 60.6387 72.3124 59.5624 72.3368 58.0946C72.3613 56.6757 73.4621 55.6238 75.0278 55.6238C76.5445 55.5994 78.0856 55.5994 79.6023 55.6238C81.119 55.6483 82.2688 56.7491 82.2688 58.1435C82.2688 59.5134 81.119 60.6387 79.6023 60.6877C78.8195 60.7121 78.0367 60.6877 77.2783 60.6877Z" fill="#ef6031"/>
<path d="M52.8886 85.0284C52.8886 85.8601 52.913 86.7163 52.8886 87.5481C52.8152 88.918 51.7633 89.9454 50.4667 89.9944C49.1702 90.0433 47.9715 89.0648 47.8981 87.7193C47.8002 85.9335 47.8002 84.1477 47.8981 82.3619C47.9715 81.0164 49.1946 80.0135 50.4423 80.0379C51.7633 80.0868 52.8396 81.1632 52.8886 82.5821C52.913 83.4138 52.8886 84.2211 52.8886 85.0284Z" fill="#ef6031"/>
<path d="M52.8886 31.2097C52.8886 32.0659 52.913 32.8977 52.8886 33.7539C52.8152 35.0994 51.7388 36.1757 50.4423 36.2002C49.1946 36.2247 47.9715 35.2706 47.8981 33.9741C47.8002 32.1638 47.8002 30.3291 47.8981 28.5188C47.9715 27.1489 49.1702 26.2437 50.5156 26.2927C51.7877 26.3416 52.8152 27.369 52.8886 28.69C52.913 29.5218 52.8886 30.3535 52.8886 31.2097Z" fill="#ef6031"/>
</svg>
