<svg width="49" height="49" viewBox="0 0 49 49" fill="none" xmlns="http://www.w3.org/2000/svg">
<path d="M37.956 28.058C36.3246 27.8977 34.7418 27.4194 33.2994 26.6508L38.2776 24.3458L33.2994 22.0409C34.7418 21.2723 36.3246 20.7939 37.956 20.6337L48.3333 0.672852L28.0952 10.9087C27.9337 12.518 27.4487 14.0795 26.6686 15.5019L24.3333 10.5927L21.9965 15.5019C21.217 14.0792 20.7321 12.5179 20.5698 10.9087L0.333252 0.672852L10.7105 20.6393C12.3419 20.7993 13.9248 21.2776 15.3671 22.0465L10.3888 24.3458L15.3671 26.6508C13.9248 27.4196 12.3419 27.8979 10.7105 28.058L0.333252 48.0187L20.5698 37.783C20.7321 36.1738 21.217 34.6125 21.9965 33.1898L24.3333 38.0989L26.6686 33.1898C27.4487 34.6122 27.9337 36.1736 28.0952 37.783L48.3333 48.0187L37.956 28.058ZM24.3333 27.5012C23.7002 27.5015 23.0813 27.3166 22.5548 26.9699C22.0283 26.6232 21.6179 26.1302 21.3755 25.5534C21.133 24.9766 21.0695 24.3419 21.1928 23.7294C21.3161 23.117 21.6208 22.5544 22.0683 22.1128C22.5159 21.6711 23.0861 21.3704 23.707 21.2484C24.3278 21.1265 24.9714 21.1889 25.5562 21.4277C26.1411 21.6666 26.641 22.0713 26.9928 22.5905C27.3445 23.1096 27.5322 23.72 27.5322 24.3444C27.5324 24.759 27.4498 25.1695 27.2891 25.5526C27.1285 25.9357 26.8929 26.2838 26.5958 26.577C26.2988 26.8703 25.9461 27.103 25.5579 27.2618C25.1697 27.4206 24.7535 27.5024 24.3333 27.5026V27.5012Z" fill="#FBFCFF"/>
</svg>
