<svg width="15" height="18" viewBox="0 0 15 18" fill="none" xmlns="http://www.w3.org/2000/svg">
<path d="M7.49936 0C6.90672 0 6.42793 0.478795 6.42793 1.07143V1.71429C3.98373 2.20982 2.14222 4.37277 2.14222 6.96429V7.59375C2.14222 9.16741 1.56298 10.6875 0.518332 11.8661L0.270564 12.144C-0.0106855 12.4587 -0.0776498 12.9107 0.0931091 13.2958C0.263868 13.6808 0.648913 13.9286 1.07079 13.9286H13.9279C14.3498 13.9286 14.7315 13.6808 14.9056 13.2958C15.0797 12.9107 15.0094 12.4587 14.7282 12.144L14.4804 11.8661C13.4357 10.6875 12.8565 9.17076 12.8565 7.59375V6.96429C12.8565 4.37277 11.015 2.20982 8.57079 1.71429V1.07143C8.57079 0.478795 8.09199 0 7.49936 0ZM9.0161 16.5167C9.41789 16.115 9.64222 15.5692 9.64222 15H7.49936H5.3565C5.3565 15.5692 5.58083 16.115 5.98262 16.5167C6.3844 16.9185 6.93016 17.1429 7.49936 17.1429C8.06855 17.1429 8.61431 16.9185 9.0161 16.5167Z" fill="white"/>
</svg>
