<svg width="22" height="22" viewBox="0 0 22 22" fill="none" xmlns="http://www.w3.org/2000/svg">
<path d="M0 6.1875C0 5.64049 0.217298 5.11589 0.604092 4.72909C0.990886 4.3423 1.51549 4.125 2.0625 4.125H19.9375C20.4845 4.125 21.0091 4.3423 21.3959 4.72909C21.7827 5.11589 22 5.64049 22 6.1875V8.25C22 8.43234 21.9276 8.6072 21.7986 8.73614C21.6697 8.86507 21.4948 8.9375 21.3125 8.9375C20.7655 8.9375 20.2409 9.1548 19.8541 9.54159C19.4673 9.92839 19.25 10.453 19.25 11C19.25 11.547 19.4673 12.0716 19.8541 12.4584C20.2409 12.8452 20.7655 13.0625 21.3125 13.0625C21.4948 13.0625 21.6697 13.1349 21.7986 13.2639C21.9276 13.3928 22 13.5677 22 13.75V15.8125C22 16.3595 21.7827 16.8841 21.3959 17.2709C21.0091 17.6577 20.4845 17.875 19.9375 17.875H2.0625C1.51549 17.875 0.990886 17.6577 0.604092 17.2709C0.217298 16.8841 0 16.3595 0 15.8125L0 13.75C0 13.5677 0.0724328 13.3928 0.201364 13.2639C0.330295 13.1349 0.505164 13.0625 0.6875 13.0625C1.23451 13.0625 1.75911 12.8452 2.14591 12.4584C2.5327 12.0716 2.75 11.547 2.75 11C2.75 10.453 2.5327 9.92839 2.14591 9.54159C1.75911 9.1548 1.23451 8.9375 0.6875 8.9375C0.505164 8.9375 0.330295 8.86507 0.201364 8.73614C0.0724328 8.6072 0 8.43234 0 8.25V6.1875ZM5.5 4.8125V6.1875H6.875V4.8125H5.5ZM6.875 8.9375V7.5625H5.5V8.9375H6.875ZM16.5 8.9375V7.5625H15.125V8.9375H16.5ZM15.125 6.1875H16.5V4.8125H15.125V6.1875ZM6.875 10.3125H5.5V11.6875H6.875V10.3125ZM16.5 11.6875V10.3125H15.125V11.6875H16.5ZM6.875 13.0625H5.5V14.4375H6.875V13.0625ZM16.5 14.4375V13.0625H15.125V14.4375H16.5ZM5.5 15.8125V17.1875H6.875V15.8125H5.5ZM15.125 17.1875H16.5V15.8125H15.125V17.1875Z" fill="#ef6031"/>
</svg>
