<svg width="25" height="23" viewBox="0 0 25 23" fill="none" xmlns="http://www.w3.org/2000/svg">
<g clip-path="url(#clip0_218_1472)">
<path d="M12.5009 1.38889C8.99392 1.38889 6.18576 2.98611 4.14149 4.88715C2.11024 6.77083 0.751736 9.02777 0.109375 10.5773C-0.0338542 10.9201 -0.0338542 11.3021 0.109375 11.645C0.751736 13.1944 2.11024 15.4514 4.14149 17.3351C6.18576 19.2361 8.99392 20.8333 12.5009 20.8333C16.0078 20.8333 18.816 19.2361 20.8602 17.3351C22.8915 15.447 24.25 13.1944 24.8967 11.645C25.0399 11.3021 25.0399 10.9201 24.8967 10.5773C24.25 9.02777 22.8915 6.77083 20.8602 4.88715C18.816 2.98611 16.0078 1.38889 12.5009 1.38889ZM6.25087 11.1111C6.25087 9.4535 6.90935 7.86379 8.08145 6.69169C9.25355 5.51959 10.8433 4.86111 12.5009 4.86111C14.1585 4.86111 15.7482 5.51959 16.9203 6.69169C18.0924 7.86379 18.7509 9.4535 18.7509 11.1111C18.7509 12.7687 18.0924 14.3584 16.9203 15.5305C15.7482 16.7026 14.1585 17.3611 12.5009 17.3611C10.8433 17.3611 9.25355 16.7026 8.08145 15.5305C6.90935 14.3584 6.25087 12.7687 6.25087 11.1111ZM12.5009 8.33333C12.5009 9.86545 11.2552 11.1111 9.72309 11.1111C9.41493 11.1111 9.11979 11.059 8.84201 10.9679C8.6033 10.8898 8.32552 11.0373 8.3342 11.2891C8.34722 11.5885 8.39063 11.888 8.47309 12.1875C9.06771 14.4097 11.355 15.7292 13.5773 15.1345C15.7995 14.5399 17.1189 12.2526 16.5243 10.0304C16.0425 8.22916 14.4497 7.01823 12.6788 6.94444C12.4271 6.93576 12.2795 7.2092 12.3576 7.45225C12.4488 7.73003 12.5009 8.02517 12.5009 8.33333Z" fill="white"/>
</g>
<defs>
<clipPath id="clip0_218_1472">
<rect width="25" height="22.2222" fill="white"/>
</clipPath>
</defs>
</svg>
