<svg width="89" height="100" viewBox="0 0 89 100" fill="none" xmlns="http://www.w3.org/2000/svg">
<path d="M38.3101 0C40.3634 0.43999 42.4656 0.757761 44.47 1.34441C48.1121 2.44439 51.2654 4.3999 53.9053 7.16206C54.4431 7.72427 55.0542 8.21315 55.6897 8.65314C58.8185 10.8775 60.4563 14.0308 60.7252 17.7463C61.0185 22.2439 60.8963 26.7661 60.9941 31.2882C60.9941 31.9237 61.1163 32.5837 61.3118 33.1704C62.314 36.4214 59.7963 39.8924 56.1786 40.1858C55.9342 40.2102 55.6653 40.1858 55.372 40.1858C55.1031 41.3346 54.9075 42.4591 54.5897 43.5346C53.2942 47.9834 50.7276 51.5277 46.8655 54.0699C46.1566 54.5343 45.8877 55.0232 45.9366 55.8788C46.0588 59.3987 45.3255 58.4698 48.7232 59.692C49.3588 59.912 50.0432 60.0098 50.7276 60.0098C60.4807 60.0342 70.2338 60.0342 80.0114 60.0098C81.258 60.0098 82.4069 60.1809 83.3358 61.1098C84.0691 61.8675 84.4602 62.7719 84.4602 63.823C84.4602 65.583 84.4846 67.3429 84.4602 69.1029C84.4602 70.1784 83.8735 70.8384 83.018 70.8384C82.1625 70.8384 81.5758 70.2029 81.5514 69.1273C81.5269 67.6363 81.5514 66.1452 81.5514 64.6297C81.5514 63.0653 81.4536 62.9675 79.8892 62.9675C69.745 62.9675 59.6007 62.9675 49.4565 62.9675C46.3277 62.9675 43.2233 62.9675 40.0945 62.9675C38.8234 62.9675 38.6279 63.1875 38.6279 64.4586C38.6279 72.9406 38.6279 81.4471 38.6279 89.9291C38.6279 91.1269 38.8723 91.3713 40.0456 91.3713C53.4164 91.3713 66.7873 91.3713 80.1581 91.3713C81.4047 91.3713 81.5758 91.2002 81.5758 89.9536C81.5758 85.6514 81.5758 81.3737 81.5758 77.0716C81.5758 75.5072 82.0891 74.7739 83.0913 74.7983C84.0691 74.8228 84.5091 75.5317 84.5091 77.0472C84.5091 81.7893 84.5091 86.5314 84.5091 91.2735C84.5824 91.3224 84.6557 91.3713 84.7046 91.3713C86.5135 91.3469 87.9801 91.958 88.6645 93.7668C89.2756 95.3801 88.5423 97.5312 87.0757 98.7534C85.9757 99.6822 84.6802 99.9756 83.2624 99.9756C73.9004 99.9511 64.5384 99.9756 55.152 99.9756C52.952 99.9756 50.7276 99.9756 48.5277 99.9756C47.3055 99.9756 46.621 99.4133 46.621 98.5089C46.621 97.6045 47.3299 97.0667 48.5521 97.0667C60.0896 97.0667 71.6516 97.0667 83.1891 97.0667C84.2158 97.0667 85.1446 96.9201 85.6824 95.9179C86.2202 94.9157 85.9024 94.3535 84.8024 94.3535C68.3517 94.3535 51.8765 94.3535 35.4257 94.3535C34.3746 94.3535 34.0569 94.9157 34.5458 95.869C34.9857 96.7001 35.6946 97.0667 36.6235 97.0667C38.0168 97.0667 39.4101 97.0667 40.8278 97.0667C41.9767 97.0667 42.6611 97.6045 42.6856 98.4845C42.71 99.4133 42.0256 100 40.8278 100C29.3881 100 17.9239 100 6.48415 100C4.18643 100 2.15758 99.34 1.03316 97.0912C0.373177 95.7712 0.299846 94.329 0.593172 92.9113C1.98647 85.8959 3.35533 78.8805 4.77308 71.8895C5.57973 67.8807 7.97523 65.363 11.8374 64.0919C16.5795 62.5031 21.2727 60.8164 26.0148 59.1787C26.6015 58.9831 26.8459 58.6409 26.9193 57.9809C27.0904 56.1476 26.6504 54.9743 24.9149 53.801C20.515 50.8433 17.9972 46.5167 17.1417 41.2369C17.0928 40.9435 17.0195 40.6747 16.9706 40.3569C15.0395 40.2835 13.3529 39.7213 12.1063 38.2303C10.8352 36.7392 10.4196 35.0526 11.0552 33.1459C11.2018 32.7059 11.2752 32.1926 11.2996 31.7282C11.3729 28.5016 11.2996 25.275 11.544 22.0728C11.7885 18.724 12.9373 15.6197 14.5995 12.6864C15.0395 11.8797 15.8951 11.6597 16.6039 12.0264C17.3128 12.3931 17.5084 13.1997 17.1661 14.0552C16.4084 15.9863 15.4795 17.8685 14.9173 19.8484C13.9884 23.0506 14.2573 26.3505 14.2818 29.7238C15.2106 29.5771 16.0662 29.4305 16.6773 29.3082C17.4839 27.9638 18.0461 26.595 18.9505 25.5683C20.6616 23.6373 22.9593 23.075 25.526 23.4173C30.6836 24.1017 35.6457 23.4661 40.2901 20.9973C41.6589 20.264 42.9056 19.3107 44.1766 18.4063C45.9855 17.0863 47.6966 17.3063 48.9188 19.1885C49.9943 20.8262 51.3387 21.9262 53.3431 22.2195C54.8586 22.4395 55.4942 23.295 55.5431 24.8594C55.5675 26.3261 55.5431 27.7683 55.5431 29.2593C56.4475 29.4305 57.2541 29.5771 58.0608 29.7238C58.1097 29.6749 58.1586 29.626 58.1586 29.5771C58.1097 25.7639 58.2319 21.9506 57.963 18.1863C57.7186 15.033 56.3986 12.2953 53.392 10.7064C53.1231 10.5598 52.8787 10.2909 52.6587 10.0709C47.1344 4.10658 40.4123 2.24884 32.7613 3.25104C28.4837 3.7888 24.7682 5.64654 21.5172 8.45759C21.346 8.60425 21.1749 8.75092 20.9794 8.89758C20.2216 9.43535 19.3905 9.38646 18.9017 8.77536C18.3883 8.13982 18.4372 7.28428 19.1461 6.69763C20.5394 5.57321 21.9327 4.42435 23.4482 3.51992C26.6259 1.58885 30.1214 0.488878 33.8369 0.195551C34.0324 0.171107 34.2035 0.0977756 34.3746 0.0488878C35.6946 0 36.9901 0 38.3101 0ZM46.1077 20.4595C45.9611 20.5573 45.8388 20.6062 45.7411 20.6795C39.6301 25.6417 32.5902 27.1816 24.8904 26.2039C21.8594 25.8128 19.7572 27.6216 19.7083 30.6771C19.6594 33.4393 19.6594 36.2014 19.7327 38.9636C19.855 42.8257 21.1749 46.2967 23.8393 49.1078C27.8237 53.2877 32.7369 54.901 38.4812 54.2899C45.5211 53.5077 52.072 46.7367 52.292 39.6725C52.4387 35.0281 52.3654 30.3838 52.4142 25.7394C52.4142 25.1039 52.1698 24.9083 51.6076 24.7861C49.7499 24.3461 48.2343 23.3195 47.0366 21.804C46.7433 21.3884 46.4255 20.924 46.1077 20.4595ZM26.7237 61.9408C26.6015 61.9653 26.5282 61.9653 26.4793 61.9897C21.6394 63.6764 16.775 65.2897 11.9596 67.0496C9.66186 67.8807 8.14634 69.5673 7.63302 72.0362C7.11969 74.5783 6.60637 77.1205 6.09305 79.6627C5.72639 81.4226 5.38418 83.207 5.01752 84.9914C7.99967 84.9914 10.8352 84.9914 13.744 84.9914C13.744 84.307 13.6951 83.6715 13.7684 83.0604C13.8662 82.2537 14.3551 81.7404 15.2106 81.7648C16.0662 81.7648 16.5062 82.2782 16.6528 83.0848C16.7017 83.3781 16.6773 83.6715 16.6773 83.9648C16.6773 87.6069 16.6773 91.2491 16.6773 94.8912C16.6773 95.5757 16.6773 96.2356 16.6773 96.9445C21.7371 96.9445 26.6993 96.9445 31.7591 96.9445C31.2458 95.5268 31.0992 94.1579 31.9791 92.8868C32.8836 91.5669 34.2769 91.3224 35.6457 91.298C35.6457 83.5737 35.6457 75.9472 35.6457 68.3451C28.6303 67.0007 27.4081 66.0963 26.7237 61.9408ZM13.6707 88.0469C10.5418 88.0469 7.5108 88.0469 4.38198 88.0469C4.01532 90.0513 3.57533 92.0068 3.30645 93.9868C3.06201 95.6979 3.79532 96.7978 5.40862 96.8956C8.14634 97.0423 10.9085 96.9445 13.6707 96.9445C13.6707 93.9624 13.6707 91.0535 13.6707 88.0469ZM35.548 65.4608C35.5724 64.9963 35.6213 64.7275 35.6213 64.4341C35.6702 61.452 37.1124 60.0342 40.0945 60.0098C41.0234 60.0098 41.9767 60.0098 42.93 60.0098C42.93 58.6898 42.93 57.4676 42.93 56.1721C38.5301 57.7854 34.1546 57.7854 29.7303 56.3676C29.7303 58.2987 29.6814 60.1076 29.7547 61.9408C29.8036 63.2608 30.537 64.2386 31.808 64.6297C32.9813 64.9963 34.228 65.1919 35.548 65.4608ZM55.4208 37.2769C56.643 37.2769 57.5963 36.9103 58.2319 35.9081C58.7452 35.077 58.7208 34.2215 58.1586 33.4393C57.4986 32.5348 56.5941 32.1437 55.4453 32.2171C55.4208 33.9037 55.4208 35.517 55.4208 37.2769ZM16.7261 32.2171C15.4306 32.1926 14.4773 32.6326 13.8662 33.6837C13.4018 34.4903 13.4751 35.3214 14.0129 36.0548C14.6729 36.9592 15.5773 37.3258 16.7261 37.2769C16.7261 35.5659 16.7261 33.9526 16.7261 32.2171Z" fill="#ef6031"/>
<path d="M64.8562 77.1938C64.8562 79.8582 62.6807 82.0093 60.0163 81.9848C57.3519 81.9848 55.2009 79.8093 55.2253 77.1449C55.2497 74.4561 57.4008 72.3295 60.0652 72.3295C62.7296 72.3539 64.8806 74.505 64.8562 77.1938ZM61.9229 77.1938C61.9474 76.1672 61.1163 75.3361 60.1141 75.2872C59.0386 75.2383 58.183 76.0694 58.1586 77.1449C58.1341 78.1716 58.9408 79.0271 59.9674 79.0515C61.0185 79.076 61.9229 78.2449 61.9229 77.1938Z" fill="#ef6031"/>
</svg>
