<svg width="113" height="100" viewBox="0 0 113 100" fill="none" xmlns="http://www.w3.org/2000/svg">
<path d="M112.717 85.811C112.115 87.6705 111.295 89.4753 109.408 90.323C108.259 90.8426 106.919 91.1981 105.661 91.2254C99.7001 91.3075 93.7387 91.2801 87.75 91.2528C87.039 91.2528 86.5468 91.4442 86.0272 91.9638C83.8122 94.2335 81.5699 96.4485 79.3275 98.6908C77.5774 100.441 76.6476 100.441 74.8428 98.6635C72.6004 96.4211 70.3854 94.1788 68.1157 91.9638C67.7329 91.5809 67.0766 91.3075 66.5297 91.3075C60.7051 91.2528 54.8804 91.2801 49.0558 91.2801C44.3523 91.2801 41.8912 89.0651 41.4536 84.1702C40.4692 85.1547 39.5941 86.0297 38.6917 86.9048C36.9689 88.6276 36.0118 88.6276 34.2891 86.9321C32.0194 84.6624 29.777 82.3927 27.48 80.1777C27.0971 79.7949 26.4408 79.5214 25.8939 79.5214C19.9872 79.4667 14.1079 79.4941 8.20122 79.4941C3.55244 79.4941 0.899902 76.8142 0.899902 72.1928C0.899902 59.3129 0.899902 46.4331 0.899902 33.5532C0.899902 28.9045 3.57979 26.2246 8.20122 26.2246C12.4945 26.2246 16.7878 26.2246 21.1904 26.2246C21.1904 25.7597 21.1904 25.3769 21.1904 24.994C21.1904 19.0873 21.1904 13.208 21.1904 7.30132C21.2451 2.65254 23.925 0 28.5738 0C47.415 0 66.2562 0 85.1248 0C89.7462 0 92.4261 2.67988 92.4261 7.32866C92.4261 17.0911 92.4261 26.8262 92.4261 36.5886C92.4261 37.0261 92.4261 37.4363 92.4261 38.0106C93.2738 38.0106 94.0122 38.0106 94.7779 38.0106C98.3328 38.0106 101.915 38.0106 105.47 38.0106C109.298 38.0106 111.404 39.5693 112.58 43.2063C112.607 43.3157 112.689 43.3977 112.744 43.4797C112.717 57.5628 112.717 71.7006 112.717 85.811ZM56.822 56.7698C59.0917 54.4727 61.3067 52.3124 63.4396 50.0974C64.26 49.2497 65.1624 48.8669 66.3383 48.8942C72.6005 48.9215 78.8626 48.9215 85.1248 48.9215C87.3398 48.9215 88.0508 48.1832 88.0508 45.9682C88.0508 33.0884 88.0508 20.2085 88.0508 7.32866C88.0508 5.11365 87.3125 4.40267 85.0975 4.40267C66.2562 4.40267 47.415 4.40267 28.5465 4.40267C26.3314 4.40267 25.5931 5.141 25.5931 7.35601C25.5931 20.2359 25.5931 33.1157 25.5931 45.9956C25.5931 48.2106 26.3314 48.9489 28.5465 48.9489C34.2344 48.9489 39.8949 49.0583 45.5829 48.8942C48.0713 48.8122 49.8761 49.4958 51.4895 51.3827C53.1029 53.2148 54.9624 54.9103 56.822 56.7698ZM67.6782 52.9961C66.9399 53.3516 66.2836 53.5156 65.8461 53.9258C63.4943 56.1955 61.1973 58.5473 58.8729 60.8443C57.3415 62.3483 56.3024 62.3757 54.7984 60.8716C52.474 58.5746 50.1769 56.2229 47.8252 53.9532C47.4424 53.5703 46.7861 53.2969 46.2392 53.2969C40.3051 53.2422 34.3711 53.2695 28.4371 53.2695C23.9524 53.2695 21.2451 50.5623 21.2451 46.0776C21.2451 41.3194 21.2451 36.5339 21.2451 31.7758C21.2451 31.3929 21.2451 31.0101 21.2451 30.5725C16.8425 30.5725 12.5765 30.5725 8.33795 30.5725C6.0409 30.5725 5.32991 31.2835 5.32991 33.5532C5.32991 46.4057 5.32991 59.2309 5.32991 72.0834C5.32991 74.3804 6.0409 75.0914 8.3106 75.1188C14.5728 75.1188 20.835 75.1461 27.0971 75.0914C28.2456 75.0914 29.1207 75.4469 29.9137 76.2673C31.8553 78.2362 33.8242 80.1777 35.7657 82.1466C36.0118 82.3927 36.2853 82.6115 36.6134 82.9397C38.7738 80.7793 40.9067 78.6737 42.9577 76.5408C43.9148 75.5563 44.9266 75.1188 46.3212 75.1188C52.5013 75.1735 58.6815 75.1461 64.8889 75.1461C67.0219 75.1461 67.7876 74.3804 67.7876 72.2475C67.7876 66.2861 67.7876 60.3247 67.7876 54.336C67.7329 53.9805 67.7056 53.6797 67.6782 52.9961ZM77.1125 94.753C79.3822 92.456 81.5972 90.2957 83.7302 88.0807C84.5505 87.2329 85.453 86.8501 86.6288 86.8775C92.891 86.9048 99.1532 86.9048 105.415 86.9048C107.576 86.9048 108.341 86.1665 108.341 84.0335C108.341 71.0716 108.341 58.1371 108.341 45.1752C108.341 43.1242 107.576 42.3586 105.47 42.3586C101.478 42.3586 97.4577 42.3586 93.4653 42.3586C93.1098 42.3586 92.7816 42.3586 92.3988 42.3586C92.3988 43.7805 92.3988 45.0111 92.3988 46.2417C92.3714 50.5076 89.6369 53.2695 85.3436 53.2695C81.3511 53.2695 77.3313 53.2695 73.3388 53.2695C72.9559 53.2695 72.5731 53.2695 72.0809 53.2695C72.0809 53.7891 72.0809 54.1719 72.0809 54.5821C72.0809 60.4068 72.0809 66.2314 72.0809 72.0561C72.0809 76.8416 69.4557 79.4941 64.6702 79.4941C58.7635 79.4941 52.8842 79.5214 46.9775 79.4668C46.1298 79.4668 45.8016 79.6855 45.8563 80.5606C45.9383 81.6818 45.8837 82.8029 45.8837 83.9515C45.8837 86.1665 46.622 86.9048 48.837 86.9048C54.5249 86.9048 60.1855 87.0142 65.8734 86.8501C68.3619 86.7681 70.1667 87.4517 71.7801 89.3386C73.3935 91.2254 75.2803 92.8935 77.1125 94.753Z" fill="#ef6031"/>
<path d="M56.8493 16.5988C50.3684 16.5988 43.9148 16.5988 37.4338 16.5988C37.0783 16.5988 36.6955 16.6262 36.34 16.5715C35.1915 16.4074 34.3984 15.4777 34.3984 14.4385C34.3984 13.372 35.2188 12.4696 36.3673 12.3055C36.7228 12.2509 37.1057 12.2782 37.4612 12.2782C50.3957 12.2782 63.3576 12.2782 76.2921 12.2782C76.3742 12.2782 76.4289 12.2782 76.5109 12.2782C78.2884 12.2782 79.3275 13.0986 79.3275 14.4659C79.3275 15.8331 78.261 16.6535 76.5109 16.6535C69.9206 16.5988 63.3849 16.5988 56.8493 16.5988Z" fill="#ef6031"/>
<path d="M62.2364 41.046C57.3689 41.046 52.5013 41.046 47.6064 41.046C45.8016 41.046 44.7351 39.7881 45.1727 38.2841C45.4461 37.3816 46.0751 36.8894 46.9501 36.7527C47.333 36.698 47.7432 36.698 48.1534 36.698C57.5056 36.698 66.8578 36.698 76.1827 36.698C76.4015 36.698 76.6203 36.698 76.839 36.698C78.261 36.7527 79.2455 37.6004 79.2728 38.831C79.3002 40.0889 78.3157 41.046 76.839 41.046C71.9715 41.0733 67.104 41.046 62.2364 41.046Z" fill="#ef6031"/>
<path d="M51.3529 24.4471C56.1931 24.4471 61.0332 24.4471 65.8734 24.4471C67.4048 24.4471 68.3072 25.2128 68.4166 26.4434C68.4986 27.6192 67.7876 28.549 66.5844 28.7678C66.2016 28.8225 65.7914 28.8225 65.3812 28.8225C56.0563 28.8225 46.7588 28.8225 37.4339 28.8225C37.2151 28.8225 36.9963 28.8225 36.7776 28.8225C35.3556 28.7678 34.3711 27.8927 34.3711 26.6621C34.3438 25.4042 35.3556 24.4745 36.8323 24.4471C41.6725 24.4471 46.5127 24.4471 51.3529 24.4471Z" fill="#ef6031"/>
<path d="M38.8832 38.9131C38.8559 40.0889 37.7894 41.0734 36.5588 41.046C35.3283 41.0187 34.3165 39.9796 34.3438 38.831C34.3711 37.6552 35.4376 36.6707 36.6408 36.6981C37.8988 36.7254 38.9105 37.7372 38.8832 38.9131Z" fill="#ef6031"/>
<path d="M79.3002 26.58C79.3275 27.7012 78.3157 28.7677 77.1946 28.795C76.0734 28.8224 75.0069 27.8106 74.9795 26.6894C74.9522 25.5682 75.964 24.5018 77.0852 24.4744C78.2063 24.4471 79.2728 25.4589 79.3002 26.58Z" fill="#ef6031"/>
</svg>
