<svg width="101" height="101" viewBox="0 0 101 101" fill="none" xmlns="http://www.w3.org/2000/svg">
<path d="M37.8748 82.2714C37.3144 82.2714 36.9501 82.2714 36.5577 82.2714C29.1877 82.2714 21.8177 82.2714 14.4196 82.2714C11.0008 82.2714 9.15126 80.4779 9.15126 77.0591C9.15126 64.701 9.15126 52.3708 9.17929 40.0127C9.17929 39.172 8.92708 38.6396 8.31057 38.0511C1.86529 32.2503 -0.516664 25.0484 1.94936 16.7536C4.38736 8.48686 10.1881 3.55482 18.7351 2.32181C31.1493 0.556358 41.9942 10.2803 41.8261 22.8346C41.8261 23.1149 41.8261 23.3671 41.8261 23.7594C42.2744 23.7594 42.6107 23.7594 42.947 23.7594C50.6813 23.7594 58.3876 23.7594 66.122 23.7594C67.4951 23.7594 67.4671 23.7594 67.383 22.3863C67.327 21.3774 67.2709 20.3406 67.4391 19.3598C67.5792 18.5751 67.2989 18.2108 66.7105 17.8465C66.0379 17.4542 65.4214 17.0339 64.8049 16.5575C63.4037 15.4926 62.7592 13.6711 63.4037 12.0738C64.1604 10.2243 65.0011 8.37477 67.2989 7.9264C68.56 7.67419 69.6809 8.09454 70.6897 8.71104C71.9227 9.46766 73.0437 9.77592 74.1646 8.54291C74.3327 8.37477 74.5569 8.20663 74.7811 8.17861C77.0229 7.70222 77.2191 6.04886 77.2191 4.19934C77.2191 2.48994 78.0878 1.22891 79.6571 0.612404C81.2264 -0.00410195 82.9077 -0.00410195 84.477 0.612404C85.9622 1.20089 86.915 2.40587 86.887 4.00318C86.831 6.16095 87.5315 7.39396 89.5772 8.45884C91.2025 9.32755 92.2954 9.43964 93.8367 8.57093C96.4148 7.14176 98.3764 7.87035 99.9177 10.4204C100.842 11.9617 101.487 13.559 100.45 15.2404C99.9457 16.0531 99.105 16.7536 98.2924 17.2861C97.1995 18.0147 96.3027 18.6592 96.7511 20.2285C96.9473 20.873 96.9192 21.6577 96.7231 22.3022C96.4428 23.339 96.8912 23.8715 97.7319 24.2638C97.844 24.3198 97.9561 24.4319 98.0682 24.488C101.235 26.2815 101.851 28.6634 99.6935 31.9141C98.3764 33.9037 96.3307 34.5763 94.1449 33.5674C93.7807 33.3993 93.3883 33.2031 92.8279 32.9229C92.8279 33.4553 92.8279 33.8757 92.8279 34.268C92.8279 48.5317 92.8279 62.7954 92.8279 77.0871C92.8279 79.9174 91.4828 81.7389 89.0448 82.2153C88.5684 82.2994 88.064 82.2994 87.5876 82.2994C80.2175 82.2994 72.8475 82.2994 65.4494 82.2994C65.0571 82.2994 64.6928 82.2994 64.1323 82.2994C64.5527 83.9247 64.945 85.466 65.3654 87.0072C66.0099 89.4452 66.0099 89.4452 68.532 89.4452C70.97 89.4452 73.436 89.4452 75.874 89.4452C78.6482 89.4452 80.5538 91.3228 80.6379 94.069C80.6659 94.8817 80.6939 95.6944 80.5538 96.479C80.1895 98.6368 78.2559 100.15 75.874 100.15C67.2989 100.15 58.7519 100.15 50.1769 100.15C42.3024 100.15 34.456 100.15 26.5816 100.15C23.1628 100.15 21.3973 98.3565 21.3693 94.9097C21.3693 93.6207 21.4253 92.3877 22.266 91.3228C23.2188 90.0898 24.4798 89.4452 26.0491 89.4452C29.1036 89.4452 32.1301 89.4172 35.1846 89.4733C35.8291 89.4733 36.0813 89.3051 36.2495 88.6606C36.6979 86.5309 37.2863 84.4852 37.8748 82.2714ZM12.458 40.8814C12.458 50.0449 12.458 59.1244 12.458 68.2038C38.1831 68.2038 63.8521 68.2038 89.6052 68.2038C89.6052 67.7274 89.6052 67.3071 89.6052 66.8867C89.6052 54.3605 89.6052 41.8622 89.6052 29.336C89.6052 27.2342 89.325 26.982 87.2513 26.982C72.3711 26.982 57.4629 26.982 42.5827 26.982C42.1904 26.982 41.8261 26.982 41.4057 26.982C39.7804 33.3152 36.1654 38.0511 30.3086 40.8814C24.4238 43.7117 18.4549 43.5436 12.458 40.8814ZM12.3739 71.5386C12.3739 73.332 12.3739 75.0134 12.3739 76.6668C12.3739 78.7685 12.6261 79.0207 14.7278 79.0207C38.8836 79.0207 63.0394 79.0207 87.1953 79.0207C87.5876 79.0207 88.0359 79.1328 88.3162 78.9646C88.7926 78.6844 89.4651 78.2361 89.4931 77.8437C89.6052 75.77 89.5492 73.6683 89.5492 71.5386C63.8241 71.5386 38.1831 71.5386 12.3739 71.5386ZM32.4384 35.6131C32.0741 35.3048 31.7658 35.0807 31.4856 34.8004C27.9827 31.2976 24.4798 27.7667 20.9489 24.2918C20.1643 23.5352 19.828 22.7225 19.828 21.6296C19.8841 16.6696 19.856 11.7095 19.856 6.74944C19.856 6.35711 19.856 5.93677 19.856 5.54445C14.1394 5.20817 7.2457 10.7007 5.11596 17.146C2.67796 24.516 5.56432 32.6987 12.0937 36.9022C18.4269 40.9935 27.0019 40.5171 32.4384 35.6131ZM34.5401 33.4553C38.6875 28.8876 40.0886 21.1813 36.7259 14.5959C33.6994 8.68302 27.17 5.34829 23.1067 5.54445C23.1067 5.68456 23.0787 5.82468 23.0787 5.93677C23.0787 11.0089 23.0507 16.0811 23.1067 21.1252C23.1067 21.5456 23.3869 22.05 23.6952 22.3582C26.3574 25.0765 29.0756 27.7386 31.7658 30.4569C32.6906 31.4657 33.6153 32.4745 34.5401 33.4553ZM50.8775 96.9274C54.6886 96.9274 58.4997 96.9274 62.3109 96.9274C66.7105 96.9274 71.1101 96.9274 75.5097 96.9274C76.2943 96.9274 76.9949 96.7873 77.3312 95.9746C78.1438 93.9569 77.2191 92.5838 75.0613 92.5838C59.0322 92.5838 42.975 92.5838 26.9459 92.5838C26.6096 92.5838 26.2173 92.4998 25.909 92.6118C25.4887 92.78 24.9562 93.0322 24.7601 93.3965C23.7512 95.19 24.7881 96.9274 26.7777 96.9274C34.7923 96.9274 42.8349 96.9274 50.8775 96.9274ZM89.7734 23.9836C91.4267 24.7402 92.6317 25.8891 92.6878 27.5985C92.7438 29.0277 93.3323 29.7283 94.5653 30.1486C94.9016 30.2607 95.1818 30.4569 95.5181 30.597C96.1346 30.9052 96.5829 30.7371 96.9192 30.1486C97.0874 29.8404 97.2555 29.5321 97.4517 29.2519C97.872 28.5793 97.7599 28.1029 97.0874 27.6546C96.0785 27.01 95.1258 26.3095 94.1169 25.6649C93.3043 25.1325 92.996 24.46 93.2202 23.5352C93.6686 21.7698 93.6686 20.0043 93.2202 18.2389C92.996 17.3701 93.2762 16.6696 94.0329 16.1652C94.8175 15.6607 95.6021 15.1283 96.3868 14.5959C97.9841 13.531 97.9841 13.475 97.0033 11.7936C96.5549 11.0089 96.0505 10.8968 95.2659 11.2892C94.257 11.8216 93.1922 12.298 92.1833 12.8304C91.3146 13.2788 90.6701 13.0546 89.8855 12.5222C88.4283 11.5414 86.887 10.6446 85.3177 9.88801C84.449 9.46766 84.0006 8.96325 83.9446 8.01047C83.8885 6.88955 83.8045 5.76863 83.7204 4.67574C83.6363 3.52679 83.4121 3.35866 81.955 3.35866C80.6379 3.35866 80.4137 3.55482 80.3576 4.70376C80.3016 5.82468 80.1895 6.9456 80.1335 8.03849C80.0774 8.93523 79.6851 9.55173 78.8164 9.83196C77.0509 10.3644 75.4816 11.2331 74.1365 12.5222C73.492 13.1667 72.7634 13.2788 71.9227 12.8304C71.082 12.3821 70.2414 11.9897 69.4007 11.5694C67.6913 10.7287 67.6352 10.7567 66.6824 12.4381C66.2341 13.2227 66.4022 13.7272 67.1308 14.1755C68.0556 14.736 68.9243 15.4085 69.849 15.969C70.8298 16.5575 71.1101 17.3421 70.8298 18.463C70.4095 20.1724 70.4095 21.9099 70.97 23.6193C72.0909 23.6193 73.1557 23.6193 74.2486 23.6193C73.2398 19.6961 74.1646 16.4174 77.4993 14.0354C80.1615 12.1298 83.8325 12.1018 86.5787 13.9794C90.0536 16.5014 90.9223 19.8922 89.7734 23.9836ZM60.7696 82.3274C54.2122 82.3274 47.7389 82.3274 41.1815 82.3274C40.565 84.6813 39.9485 87.0072 39.332 89.3612C47.1784 89.3612 54.8567 89.3612 62.6471 89.3612C62.0306 86.9792 61.4141 84.6533 60.7696 82.3274ZM81.955 23.7314C83.1039 23.7314 84.2528 23.7033 85.4018 23.7594C86.0183 23.7874 86.3546 23.5632 86.6068 23.0308C87.5596 20.9291 86.9711 18.435 85.1496 17.0058C83.3281 15.5767 80.778 15.5767 78.9565 17.0058C77.135 18.463 76.4905 20.9851 77.5554 23.0308C77.7235 23.3671 78.2559 23.6753 78.6202 23.7314C79.7131 23.8154 80.834 23.7314 81.955 23.7314Z" fill="#ef6031"/>
<path d="M29.7761 61.7866C29.7761 59.4607 29.7761 57.359 29.7761 55.2292C29.7761 53.5478 30.2525 53.0715 31.9619 53.0715C33.6993 53.0715 35.4648 53.0715 37.2022 53.0715C38.4913 53.0715 39.0517 53.6319 39.0517 54.921C39.0798 57.1628 39.0517 59.3766 39.0517 61.6745C39.6402 61.6745 40.0886 61.6745 40.7051 61.6745C40.7331 61.3382 40.7611 60.9739 40.7611 60.6096C40.7611 56.9666 40.7611 53.3237 40.7611 49.7087C40.7611 47.9432 41.2655 47.4669 43.003 47.4669C44.7124 47.4669 46.4218 47.4669 48.1312 47.4669C49.5323 47.4669 50.0928 48.0553 50.0928 49.4565C50.0928 53.5198 50.0928 57.5551 50.0928 61.7025C50.6532 61.7025 51.1577 61.7025 51.7742 61.7025C51.7742 61.3382 51.7742 60.9739 51.7742 60.5816C51.7742 54.6407 51.7742 48.6999 51.7742 42.759C51.7742 40.9375 52.2225 40.4891 54.072 40.4891C55.7254 40.4891 57.3507 40.4891 59.0041 40.4891C60.6294 40.4891 61.1058 40.9935 61.1058 42.6469C61.1058 48.5598 61.1058 54.4726 61.1058 60.3854C61.1058 60.8058 61.1058 61.2261 61.1058 61.7305C61.6663 61.7305 62.1707 61.7305 62.8152 61.7305C62.8152 61.3102 62.8152 60.8899 62.8152 60.4975C62.8152 55.3974 62.8152 50.2972 62.8152 45.169C62.8152 43.2634 63.2356 42.8431 65.1692 42.8431C66.8225 42.8431 68.4478 42.8431 70.1012 42.8431C71.5864 42.8431 72.1188 43.3755 72.1188 44.8607C72.1188 50.073 72.1188 55.2853 72.1188 60.4975C72.1188 60.8899 72.1188 61.2542 72.1188 61.7866C72.8194 61.7866 73.4359 61.7586 74.0244 61.7866C75.0613 61.8426 75.7338 62.4591 75.7618 63.3839C75.7618 64.3087 75.1173 64.9532 74.0805 65.0373C73.8002 65.0653 73.52 65.0373 73.2398 65.0373C58.3596 65.0373 43.4513 65.0373 28.5711 65.0373C28.1788 65.0373 27.7865 65.0653 27.4222 64.9812C26.5535 64.8131 26.0491 64.2526 26.0491 63.3839C26.0491 62.4872 26.5815 61.9267 27.4502 61.8146C28.2349 61.7306 28.9354 61.7866 29.7761 61.7866ZM55.1089 43.7118C55.1089 49.7647 55.1089 55.7056 55.1089 61.7025C56.0617 61.7025 56.9584 61.7025 57.8551 61.7025C57.8551 55.6776 57.8551 49.7087 57.8551 43.7118C56.9584 43.7118 56.0897 43.7118 55.1089 43.7118ZM68.9523 61.7025C68.9523 56.4062 68.9523 51.278 68.9523 46.0657C67.9995 46.0657 67.1027 46.0657 66.178 46.0657C66.178 51.306 66.178 56.4622 66.178 61.7025C67.1027 61.7025 67.9995 61.7025 68.9523 61.7025ZM46.9262 61.7305C46.9262 58.1436 46.9262 54.6968 46.8982 51.2219C46.8982 51.0258 46.6179 50.7175 46.4498 50.6895C45.6652 50.6335 44.8805 50.6615 44.1239 50.6615C44.1239 54.4446 44.1239 58.0595 44.1239 61.7025C45.0486 61.7306 45.9174 61.7305 46.9262 61.7305ZM35.8291 61.7025C35.8291 59.853 35.8291 58.0876 35.8291 56.3221C34.8763 56.3221 33.9796 56.3221 33.0548 56.3221C33.0548 58.1436 33.0548 59.881 33.0548 61.7025C33.9796 61.7025 34.8483 61.7025 35.8291 61.7025Z" fill="#ef6031"/>
<path d="M56.4539 32.6427C58.5276 33.0911 60.4051 33.4834 62.2827 33.8757C63.9921 34.24 65.7015 34.6043 67.4109 34.9966C68.784 35.3049 69.3445 36.0055 69.0923 37.0423C68.8681 38.0231 68.0274 38.4154 66.7383 38.1352C63.7679 37.4907 60.7975 36.8181 57.827 36.2577C57.2385 36.1456 56.4819 36.2577 56.0055 36.5659C49.5602 40.8815 42.8067 44.6926 35.801 48.0273C35.5768 48.1394 35.3526 48.2515 35.1284 48.3356C34.2317 48.6718 33.363 48.3636 32.9987 47.5789C32.6344 46.7943 32.9146 45.8976 33.7553 45.4492C35.2966 44.6365 36.8378 43.7958 38.4351 43.0672C44.348 40.377 49.6723 36.678 55.1368 33.2592C55.5852 33.007 56.0896 32.8108 56.4539 32.6427Z" fill="#ef6031"/>
<path d="M69.3726 73.6683C70.0732 73.6683 70.7737 73.6403 71.4463 73.6683C72.371 73.7244 73.0156 74.453 72.9875 75.2937C72.9595 76.1063 72.343 76.7789 71.4463 76.8069C70.0451 76.8349 68.672 76.863 67.2709 76.8069C66.3741 76.7789 65.7856 76.0783 65.7856 75.2376C65.7856 74.3969 66.4022 73.7244 67.2709 73.6683C67.9714 73.6403 68.672 73.6683 69.3726 73.6683Z" fill="#ef6031"/>
<path d="M80.1335 76.8629C79.4329 76.8629 78.7324 76.8909 78.0598 76.8629C77.1631 76.8069 76.5746 76.1904 76.5466 75.3216C76.5185 74.4249 77.1351 73.7243 78.0878 73.6963C79.4329 73.6683 80.8061 73.6683 82.1512 73.6963C83.1039 73.7243 83.7205 74.4249 83.7205 75.2936C83.7205 76.1904 83.0759 76.7788 82.1231 76.8629C82.0671 76.8629 81.983 76.8629 81.927 76.8629C81.3385 76.8629 80.722 76.8629 80.1335 76.8629Z" fill="#ef6031"/>
</svg>
