<svg xmlns="http://www.w3.org/2000/svg" width="21.066" height="17.991" viewBox="0 0 21.066 17.991">
    <path d="m4 3-.812 2.188L1 6l2.188.813L4 9l.813-2.187L7 6l-2.187-.812zm10.012 2a7.841 7.841 0 0 0-5.668 2.344 8 8 0 0 0 11.312 11.312 7.936 7.936 0 0 0 2.254-4.52l.156-1.123L20.932 13a5.967 5.967 0 0 1-4.174-1.758A6.812 6.812 0 0 1 15 6.059l.063-1.047zm-.865 2.156a8.2 8.2 0 0 0 2.2 5.5 7.815 7.815 0 0 0 4.314 2.09 5.824 5.824 0 0 1-1.416 2.5 6 6 0 0 1-8.487-8.488 5.68 5.68 0 0 1 3.388-1.602z" transform="translate(-1 -3)" style="fill:#fff"/>
</svg>
